<?xml version="1.0" standalone="no"?>
<!DOCTYPE svg PUBLIC "-//W3C//DTD SVG 20010904//EN"
 "http://www.w3.org/TR/2001/REC-SVG-20010904/DTD/svg10.dtd">
<svg version="1.0" xmlns="http://www.w3.org/2000/svg"
 width="328.000000pt" height="328.000000pt" viewBox="0 0 328.000000 328.000000"
 preserveAspectRatio="xMidYMid meet">
<metadata>
Created by potrace 1.11, written by Peter Selinger 2001-2013
</metadata>
<g transform="translate(0.000000,328.000000) scale(0.100000,-0.100000)"
fill="#000000" stroke="none">
<path d="M6 2600 c-3 -5 0 -1909 3 -1922 1 -9 925 -3 971 7 202 41 398 175
523 359 63 91 157 309 141 325 -3 3 -106 6 -230 6 l-224 0 -36 -47 c-64 -84
-158 -141 -254 -154 -82 -11 -470 -10 -471 1 -1 6 -2 218 -3 473 l-1 463 255
-3 255 -3 65 -31 c62 -30 134 -90 173 -146 l18 -25 229 0 c127 0 230 3 230 6
0 3 -13 43 -29 89 -111 314 -353 538 -642 593 -64 12 -967 21 -973 9z"/>
<path d="M1445 2592 c-5 -6 11 -30 130 -200 55 -79 107 -154 115 -168 8 -13
71 -104 139 -201 68 -98 125 -183 128 -189 3 -8 -172 -11 -644 -12 -356 0
-660 -1 -676 -1 l-27 -1 2 -182 3 -183 673 0 c369 0 672 -3 672 -6 0 -3 -36
-57 -79 -120 -78 -111 -122 -175 -337 -484 -57 -82 -104 -153 -104 -156 0 -3
110 -6 244 -6 l243 0 239 346 c276 398 336 486 387 559 l36 53 -48 67 c-46 65
-335 481 -476 687 -38 55 -81 117 -96 138 -15 21 -30 44 -32 50 -2 8 -71 12
-246 12 -133 0 -244 -1 -246 -3z"/>
<path d="M2780 2592 c-8 -1 -40 -40 -70 -84 -30 -45 -113 -165 -183 -266
l-129 -184 69 -100 c37 -55 92 -134 121 -176 28 -43 56 -78 61 -80 5 -2 46 50
91 115 45 65 130 188 189 273 59 85 123 178 142 205 19 28 74 106 121 175 l86
125 -242 0 c-133 0 -248 -1 -256 -3z"/>
<path d="M2622 1548 c-11 -18 -50 -76 -87 -128 -36 -52 -82 -118 -101 -147
l-36 -52 187 -269 186 -269 245 0 c134 0 244 2 244 4 0 5 -40 64 -355 518
-125 182 -236 340 -246 353 l-17 22 -20 -32z"/>
</g>
</svg>
